<svg id="Layer_1" data-name="Layer 1" xmlns="http://www.w3.org/2000/svg" viewBox="0 0 841.89 595.28"><defs><style>.cls-1{fill:#fff;stroke:#e6e7e8;stroke-miterlimit:10;stroke-width:0.25px;}</style></defs><path class="cls-1" d="M188.22,78.83a218.88,218.88,0,0,1,3.84,47.38c-.16,6.11,9.34,6.11,9.5,0a230.78,230.78,0,0,0-4.18-49.9c-1.16-6-10.32-3.46-9.16,2.52Z"/><path class="cls-1" d="M225.87,85.93a43.56,43.56,0,0,1-14.61,11.89,78.93,78.93,0,0,1-11.51,4.86c-2.89,1-5.82,1.87-8.72,2.7-5.46,1.56-7.88-5.73-3.66-8.68a19.76,19.76,0,0,1,10.89-3.5c6.41-2.26,12.55-5.24,17.45-10.07,5.68-5.58,11.36-18.11,4.12-24.89C214,52.8,200.91,62,196.2,65.82A49.85,49.85,0,0,0,181.33,86c-2.23,5.63-11.41,3.16-9.16-2.52a60.37,60.37,0,0,1,21.77-27.71c8.71-6.07,23.54-13.31,32.61-4.2C235.8,60.8,233.17,76.44,225.87,85.93Z"/><path class="cls-1" d="M224.72,129.19c-7.5-2.51-11.18-8.67-14.36-15.49-1.69-3.63-3.39-8-7.13-10a9.3,9.3,0,0,0-3.48-1,78.93,78.93,0,0,0,11.51-4.86l0,0c3.57,3.18,5.63,7.49,7.59,11.75,1.83,4,3.87,8.93,8.36,10.43C233,122,230.53,131.13,224.72,129.19Z"/><path class="cls-1" d="M235.69,98.4l1.56,26.71c.36,6.08,9.86,6.12,9.5,0L245.19,98.4c-.36-6.07-9.86-6.11-9.5,0Z"/><path class="cls-1" d="M245.58,76.64l.22-.37a3.53,3.53,0,0,0,.57-1.77,3.58,3.58,0,0,0-.09-1.89,3.52,3.52,0,0,0-.85-1.62,3.63,3.63,0,0,0-1.33-1.22L243,69.29a4.93,4.93,0,0,0-2.53,0l-1.13.48a4.72,4.72,0,0,0-1.71,1.7l-.22.37a3.53,3.53,0,0,0-.57,1.77,3.58,3.58,0,0,0,.09,1.89,5.29,5.29,0,0,0,2.18,2.84l1.14.48a4.89,4.89,0,0,0,2.52,0l1.14-.48a4.77,4.77,0,0,0,1.7-1.7Z"/><path class="cls-1" d="M273.46,91.24c-9.86,3.56-19.94,10.83-19.14,22.59.81,11.92,12.92,16.49,23.23,14.91,6-.93,3.47-10.08-2.52-9.16-5.55.85-12.47-2.06-11.06-8.72,1.19-5.68,7.06-8.67,12-10.46,5.7-2.06,3.24-11.25-2.53-9.16Z"/><path class="cls-1" d="M328.22,125.71c-.52,6.06-10,6.09-9.5,0a172.83,172.83,0,0,0,.55-21.47c-.09-2.37.42-7.37-1.19-9.32-2.54-3.1-6,.34-7.57,2.64-7.43,10.82-6.69,25.82-6.47,38.31.11,6.14-9.3,6.09-9.5,0-.17-9.87-.25-19.93,2.16-29.58a44.49,44.49,0,0,1,5.9-14.15,18.31,18.31,0,0,1,8.21-6.94C333.16,76.35,329.17,114.56,328.22,125.71Z"/><path class="cls-1" d="M296.7,106.29c-2.41,9.65-2.33,19.71-2.16,29.58q-1.38-42.16-2.77-84.34c-.2-6.12,9.3-6.1,9.5,0q.68,20.31,1.33,40.61A44.49,44.49,0,0,0,296.7,106.29Z"/><path class="cls-1" d="M355.64,87.78c-10.4,2.36-18.94,10.44-21,21.06-1.88,9.71,1.48,23.57,13.61,23.37,17.57-.3,37.81-40.41,15.58-47.11-5.87-1.77-8.38,7.4-2.53,9.16,8.9,2.68-5.27,28.24-12.94,28.4-6.63.13-4.92-11.71-3.3-15.47,2.41-5.56,7.32-8.93,13.09-10.25,6-1.35,3.44-10.51-2.52-9.16Z"/><path class="cls-1" d="M372.2,135.06A349.22,349.22,0,0,1,368,90.32c-.18-6.1-9.68-6.13-9.5,0a365.8,365.8,0,0,0,5.07,50.62c.82,4.81,8,4.23,9.16,0,.15-.53.3-1.05.44-1.58A4.31,4.31,0,0,0,372.2,135.06Z"/><path class="cls-1" d="M412.57,83.63a49.54,49.54,0,0,0-17.88,37.12q.46,5.31,1,10.62c.52,5.36-8.34,6.47-9.33,1.27a59.3,59.3,0,0,1,6.26-39.57,56.25,56.25,0,0,1,13.27-16.16C410.52,73,417.27,79.7,412.57,83.63Z"/><path class="cls-1" d="M392.59,93.07a59.25,59.25,0,0,0-7.3,28.86q-1.83-20.78-3-41.6c-.33-6.12,9.17-6.08,9.5,0Q392.18,86.71,392.59,93.07Z"/><path class="cls-1" d="M442.91,88.44c-5.55-2.61-12.19-2.36-16.83,2.07s-5.39,11.81-4.91,18c1,13.1,10.22,26.13,24.83,23,6-1.28,3.44-10.44-2.53-9.16-7.34,1.56-11.65-6-12.59-12.17-.68-4.39-.78-17.32,7.24-13.56,5.5,2.59,10.33-5.6,4.79-8.2Z"/><path class="cls-1" d="M441.63,49.06A577.37,577.37,0,0,0,449,139c1,6,10.12,3.46,9.16-2.53a559.53,559.53,0,0,1-7-87.38c0-6.11-9.52-6.12-9.5,0Z"/><path class="cls-1" d="M460.89,70.47a110.46,110.46,0,0,0,7.9,22.31c2.62,5.51,10.82.7,8.2-4.8a98.64,98.64,0,0,1-6.94-20c-1.4-5.95-10.56-3.43-9.16,2.53Z"/><path class="cls-1" d="M508,123.93A86.25,86.25,0,0,1,491,136.26a4.44,4.44,0,0,1-6.48,2l-1-.58c-2.93-1.77-3.23-6.5,0-8.2,6.94-3.65,14.9-8.28,19.88-14.5,6-7.55-5.8-12.53-10.33-17-9-9-11-26,2.27-32.31,5.5-2.6,10.32,5.59,4.79,8.2-8.4,4-4.6,13.67.8,18.46,5.2,4.61,11.58,7.85,13.53,15.09C516.27,114,512.52,119.61,508,123.93Z"/><path class="cls-1" d="M131.78,123c-5-1.38-11.56,1.69-12.61,7.16-9,46.71-18.59,93.5-25.38,140.65-7.76-40.23-18.6-79.71-37-116.71-2.47-5-9.48-6.34-14-3.68-5,3-6.16,9.05-3.68,14,29.05,58.37,38.11,124.06,47,187.91.69,5,6.78,8,11.24,7.34a10.34,10.34,0,0,0,8.89-10.07c3.85-72.2,19.12-143.18,32.71-214C140,130.17,137.41,124.54,131.78,123Z"/><path class="cls-1" d="M177.7,310.78l-11.79-92.63c-.7-5.49-4.21-10.25-10.25-10.25-5,0-11,4.72-10.25,10.25l13.65,107.2c1.65,13,19.19,13.35,20.5,0l.75-7.77A8.62,8.62,0,0,0,177.7,310.78Z"/><path class="cls-1" d="M147.53,187.2l4.23,1.78a7.56,7.56,0,0,0,3.81,1.22,7.76,7.76,0,0,0,4.08-.19,10.42,10.42,0,0,0,6.13-4.71,10.28,10.28,0,0,0,1-7.89l-1-2.45a10.3,10.3,0,0,0-3.68-3.68l-4.22-1.78a7.63,7.63,0,0,0-3.81-1.22,7.9,7.9,0,0,0-4.09.18,10.48,10.48,0,0,0-6.12,4.71,10.35,10.35,0,0,0-1,7.9l1,2.45a10.27,10.27,0,0,0,3.67,3.68Z"/><path class="cls-1" d="M218.16,238.61c-3.85-4.05-8.47-8.18-10.55-13.49a12.68,12.68,0,0,1,3.89-14.44c4.77-3.64,10.87-2.55,15.46.62s11.37.84,14-3.68c3-5.09.89-10.87-3.68-14-14.85-10.25-36-6-45.75,9.08-10.31,15.92-3.83,33.16,7.91,46,5.38,5.89,10.82,11.22,14.7,18.28a53.73,53.73,0,0,1,6.59,21.49,58.38,58.38,0,0,1-3.26,24.23,51.93,51.93,0,0,1-4.5,9.28,6.14,6.14,0,0,0-.42-.47c-4.29-4.3-10.13-3.44-14.49,0-6.56,5.17-6.26,16-.67,21.67,6.29,6.42,16.5,6.07,23.42,1C233.43,334.81,239.2,316,241,301.2a75.36,75.36,0,0,0-9.09-44.62A88,88,0,0,0,218.16,238.61ZM212.57,336a3.47,3.47,0,0,0,.34-.32A2.61,2.61,0,0,1,212.57,336Z"/><path class="cls-1" d="M352.32,329.6c-23.15-18.9-32.33-46-32.47-74a431.51,431.51,0,0,0,7.78-49.29c.5-5-4.29-9.52-8.89-10.06a10.31,10.31,0,0,0-11.25,7.34,171.31,171.31,0,0,0-8.1,49.64c-.3,1.33-.6,2.67-.92,4q-3.08,12.77-7,25.33c-1.67,5.36-3.16,15.16-8.6,18.18a9.08,9.08,0,0,1-1.43-2.19,43.32,43.32,0,0,1-3-9.13,156,156,0,0,1-4.6-24.8,166.71,166.71,0,0,1,3-52c2.82-12.85-16.94-18.35-19.77-5.45a186,186,0,0,0-4.23,50.95c1,16.13,3.17,34.09,10,48.92,3.06,6.62,8.6,12.33,15.95,13.8,8.47,1.7,16.8-2.2,22.09-8.78a42.09,42.09,0,0,0,6.25-11.46,100.15,100.15,0,0,0,30.71,43.53c4.28,3.5,10.3,4.19,14.49,0C355.93,340.49,356.63,333.12,352.32,329.6Z"/><path class="cls-1" d="M430.72,315.05c-7,2-10.8-8.82-12.56-13.76a125.47,125.47,0,0,1-6.9-30.47c-.28-3-.44-5.91-.51-8.86a308.66,308.66,0,0,0,7.7-37.36,11.83,11.83,0,0,0,.83-6.17q.74-5.93,1.28-11.86c.45-5-4.25-9.51-8.89-10.07-5.41-.64-9.31,2.47-11.25,7.35q-.92,2.31-1.75,4.65c-12.07.61-23.83,6.61-32.1,15.48-13.07,14-17,33.43-18.16,52-.59,9.6-.94,19.67,3.43,28.52,4.1,8.29,12.73,14.45,22.16,14.08,10.73-.41,17.72-7.55,22.69-16.6,6,19.36,17.67,39,39.48,32.87C448.84,331.23,443.46,311.44,430.72,315.05Zm-42-50.66c-2.72,8.93-5.59,18.1-9.56,26.56-1.79,3.81-5.45,10.53-8.95,4.45-3.61-6.3-1.58-16.8-1-23.67.71-8.08,2.23-16.53,5.76-23.91,3.62-7.58,10.07-14.56,17.84-17.44a150.46,150.46,0,0,0-2.51,28.51C389.79,260.72,389.27,262.56,388.71,264.39Z"/><path class="cls-1" d="M443.66,173.93l9.87,147.24c.37,5.53,4.44,10.25,10.25,10.25,5.26,0,10.62-4.69,10.25-10.25l-9.87-147.24c-.37-5.52-4.45-10.25-10.25-10.25-5.26,0-10.62,4.7-10.25,10.25Z"/><path class="cls-1" d="M539.42,163.36,552.23,348.2c.8,11.5,18.8,11.58,18,0L557.42,163.36c-.8-11.5-18.81-11.59-18,0Z"/><path class="cls-1" d="M560.1,169.09A19.41,19.41,0,0,1,591.52,176c5.88,15.09-8.31,32.47-17.54,42.94-5.81,6.57-12.28,12.21-18.92,17.9-6.83,5.86-11.11,14.54-6.46,23.21,3.78,7.06,11.73,12.23,17.07,18.12a139,139,0,0,1,14.23,18.69,147.56,147.56,0,0,1,20.23,50.76c2.24,11.36,19.6,6.55,17.35-4.78A161.61,161.61,0,0,0,598,291.93a167.56,167.56,0,0,0-16.39-22.83q-4.19-4.92-8.77-9.48c-1.62-1.6-7.16-7.79-8.3-7.79l-.28,1.47.25-.57c.43-.15,1.66-1.71,2.14-2.14,1.61-1.47,3.36-2.77,5-4.17a147.36,147.36,0,0,0,11.5-10.85,141.08,141.08,0,0,0,18.05-23.12c10.23-16.71,13.94-37.49.63-53.64-13.82-16.78-39-16.93-54.46-2.45-8.46,7.94,4.28,20.65,12.73,12.73Z"/><path class="cls-1" d="M646.93,288.25c-7.65,4.55-15.06-1.61-17.09-9a12.46,12.46,0,0,0,3.75-3.3c5.27-6.84,15.14-2.85,20.34-9.74,4.93-6.54,1.77-27.4-7.19-31.35-12.63-5.57-26.76,12.61-31.31,22.38-6,12.93-5.65,28.6,3.71,39.91,8.83,10.69,24.93,13.76,36.87,6.65C666,297.87,656.92,282.3,646.93,288.25Zm-21.41-27.77c4.91-2.64,8.26-8,11.87-12.07,3.81-4.34,10.12,2,6.33,6.33-4.17,4.73-8,10.41-13.68,13.47C625,270.93,620.45,263.2,625.52,260.48Z"/><path class="cls-1" d="M693.68,286c-.68-10.58-4.48-20-10.48-28.67-5-7.27-12.78-24.73-4.58-30.38,37.3-25.68,17.31-36.47-15.62-6.93-12.38,11.1-2.77,35.32,5.65,47.86,3.71,5.52,6.55,11.38,7,18.12a34.34,34.34,0,0,1-.48,9.11c-.19.93-.43,1.87-.69,2.8a8.66,8.66,0,0,0-2.69-.41c-4.48,0-9.51,4.14-9,9,1.17,11.41,14.6,16.79,23,8.14C692.5,307.64,694.28,295.19,693.68,286Z"/><path class="cls-1" d="M741.43,285.93c-10.7.74-20-5.29-24.52-14.94a32.9,32.9,0,0,1-2.44-7.44,10.78,10.78,0,0,0,3.54-2,103.26,103.26,0,0,0,18.19-20.34c4.68-6.83,9.7-15,8.9-23.59-1-10.24-10.74-16.34-20.54-14.11-9.16,2.08-14.89,10.8-19.2,18.47-9.1,16.17-13,36.07-5.92,53.76,6.8,16.94,23.21,29.52,42,28.22C752.92,303.13,753,285.12,741.43,285.93ZM725.7,223.57s.19-.18.42-.38a48.9,48.9,0,0,1-7.61,12.37A53.36,53.36,0,0,1,725.7,223.57Z"/><path class="cls-1" d="M800,269.29a81.32,81.32,0,0,1-8.18-37.09L794.6,211c1.33-10.14-15.26-12.07-17.67-2.4a8.38,8.38,0,0,0-4.45,1.57,65.51,65.51,0,0,0-25.17,32.41c-4.55,12.88-5.16,30.71,8.67,38.2,10.32,5.59,20.17.8,26.26-7.33.71,1.65,1.44,3.29,2.23,4.91C789.56,288.78,805.09,279.67,800,269.29ZM764.61,265c-5.89-2-.61-16.31.85-19.7a46.22,46.22,0,0,1,8.34-12.83l-1.66,12.72C771.76,248.17,770.68,267.06,764.61,265Z"/><path class="cls-1" d="M845.61,204.9a18.42,18.42,0,0,0-18.44.61c-5.49,3.34-8.52,9.15-10.48,15.07l-1.94-15.08c-.62-4.82-3.69-9-9-9-4.38,0-9.62,4.15-9,9q3.87,30.06,7.75,60.1c.57,4.45,3,8.27,7.8,8.84a9,9,0,0,0,9.87-6.44q4-14.35,7.94-28.69c1.23-4.43,2.31-8.92,3.72-13.29a22.6,22.6,0,0,1,2-4.51c.52-.91,1.62-.58.65-1.07C846.84,225.65,856,210.12,845.61,204.9Z"/><path class="cls-1" d="M861.3,214.35c-12.09,12.53-24.89,29.11-17.83,47.58,6.66,17.42,28.3,21.63,42,9.79,8.78-7.58-4-20.27-12.73-12.73-5.6,4.83-12.64-.29-13.18-6.57-.88-10.28,7.94-18.61,14.44-25.35,8-8.34-4.67-21.08-12.73-12.72Z"/><path class="cls-1" d="M372,354.3l-1.07-2.63c-3.81-9.33-16.78-8.14-17.68,2.4L344.1,460.89c-1.41,16.49-2.22,33.18-4.47,49.59a92.61,92.61,0,0,1-5.15,21.44Q328.41,513,324,493.58c-2.19-9.77-3.33-19.81-5.65-29.52-2.17-9.08-10-17.43-20.08-15-8.11,1.95-11.92,9.82-13.34,17.36-1.89,10.11-3.35,20.31-5,30.45q-2.19,13.28-4.37,26.54c-.33-2.1-.65-4.2-1-6.28q-3.94-23.65-10-46.89A554.78,554.78,0,0,0,232,379.61c-2-4.42-8.41-5.5-12.31-3.22-4.54,2.65-5.26,7.87-3.23,12.31a527.73,527.73,0,0,1,31.61,89.92q5.88,23.25,9.69,47c2.25,14,4.48,28.29,12.84,40.13,3.94,5.59,15.07,6.22,16.45-2.15q4.2-25.54,8.42-51.08,2.1-12.76,4.21-25.54,1.09-6.63,2.18-13.26c.51,2.93,1,5.87,1.5,8.8q2.28,12.19,5.22,24.24A449.5,449.5,0,0,0,323.42,555c2.21,6,10.12,9.33,15,4,10.62-11.53,15.78-26.19,18.19-41.46,2.63-16.76,3.5-33.83,4.94-50.72l9-104.9A7.81,7.81,0,0,0,372,354.3Z"/><path class="cls-1" d="M406.39,453.23a51,51,0,0,0-23.07,37.52c-1.59,15.12,4.66,32.31,17,41.53,6,4.46,13.54,6.87,20.91,4.85,7.76-2.12,12.51-8.75,15-16s3.37-15.37,4.45-22.92C442,489.1,443,479.88,442,470.68c-1.72-17.11-8.64-32.5-22.48-43.06-3.87-2.95-10.08-.6-12.32,3.23-2.7,4.63-.65,9.36,3.23,12.32,9.4,7.16,13.29,20.06,13.85,31.38a115.87,115.87,0,0,1-1.82,24.66c-1,5.77-1.2,13.67-4.33,18.78-2.42,3.94-6.69.66-9.16-1.87-4.15-4.24-6.66-10.32-7.59-16.12-2-12.17,3.88-24.5,14.07-31.22,9.62-6.36.61-21.95-9.09-15.55Z"/><path class="cls-1" d="M523.88,449.24c-17-1.35-35.41-.18-47.12,14-.95,1.15-1.82,2.32-2.64,3.52q-1.89-15.84-3.77-31.69c-.57-4.82-3.72-9-9-9-4.42,0-9.58,4.14-9,9q5,42.18,10,84.37c.58,4.82,3.73,9,9,9a9.14,9.14,0,0,0,9-9c.33-14.38,0-31.75,9.35-43.75,8.15-10.51,22.29-9.41,34.15-8.47,4.85.39,9-4.41,9-9C532.88,453.05,528.75,449.63,523.88,449.24Z"/><path class="cls-1" d="M527.32,396.53,549.8,533.3c.79,4.8,6.74,7.47,11.07,6.28,5.1-1.4,7.08-6.25,6.29-11.07L544.68,391.74c-.79-4.8-6.74-7.47-11.07-6.28-5.1,1.4-7.08,6.25-6.29,11.07Z"/><path class="cls-1" d="M650.74,521.74a1440.93,1440.93,0,0,1-20.08-142.87c-.43-4.84-3.83-9-9-9-4.53,0-9.44,4.14-9,9q3.58,39.93,9.3,79.63a31.38,31.38,0,0,0-30.79-1c-11.16,5.86-18,19.14-17,31.62a38.11,38.11,0,0,0,20.33,30.66c12,6.26,25.56,5.82,37.82.93q1.46,7.75,3,15.49c1.56,7.85,12.69,8.43,16.45,2.15l2.67-4.45C657.45,528.8,654.82,523.92,650.74,521.74Zm-24.49-17.85c-12.45,5.82-31.39,1.68-34-13.87-1.94-11.51,11.07-24.66,21.76-15.36a9,9,0,0,0,10.54,1.1q2.13,13.64,4.52,27.23A11.57,11.57,0,0,0,626.25,503.89Z"/></svg>